# xmcd
#
# Track frame offsets: 
#        150
#        22005
#        34953
#        56720
#        71443
#        86286
#        100915
#        114059
#        139400
#        149668
#        165817
#        182656
#        197147
#        225900
#
# Disc length: 3182 seconds
#
# Revision: 2
# Processed by: cddbd v1.5.2PL0 Copyright (c) Steve Scherf et al.
# Submitted via: ExactAudioCopy v0.99pb5
#
DISCID=b70c6c0e
DTITLE=Steinbach | Koch | Gurschler - Boogie Woogie
DYEAR=2006
DGENRE=Blues and Boogie
TTITLE0=Boogie Police
TTITLE1=Walking on the Harps
TTITLE2=Me and my Piano
TTITLE3=First take Train
TTITLE4=Summertime Blues
TTITLE5=Boogie Wolf
TTITLE6=Blues Jump
TTITLE7=Holztratt 20 Blues
TTITLE8=Whammer Jammer
TTITLE9=Boogietissimo
TTITLE10=Mercedes Benz
TTITLE11=Death Ray S. Boogie
TTITLE12=Dreaming Clouds
TTITLE13=That´s it
EXTD=
EXTT0=
EXTT1=
EXTT2=
EXTT3=
EXTT4=
EXTT5=
EXTT6=
EXTT7=
EXTT8=
EXTT9=
EXTT10=
EXTT11=
EXTT12=
EXTT13=
PLAYORDER=
